<svg xmlns="http://www.w3.org/2000/svg" viewBox="0 0 90 90"><g fill="#D3D4D7" fill-rule="evenodd"><path d="M48.8581673 73.7571429c-13.5394422 5.6285714-30.9442231 5.6071428-44.78127487-11.1357143-.08605578.0928571-.35856574.2035714-.2187251.5178571C6.97768923 70.7357143 15.6549801 83.3928571 32.8231076 88.1c6.7733067 1.8571429 15.7374502 2.975 26.9426295-.8428571 6.7897232-2.332285 12.8474355-6.3957796 17.5697211-11.7857143C78.8557769 73.8071429 79.9888446 70.2 78.2928287 66.7c-2.1227092-4.3714286-7.4545817-6.7857143-12.9083665-3.0178571-4.9302789 3.4071428-9.4123506 7.2178571-16.5262949 10.075z"/><path fill-rule="nonzero" d="M68.3820717 27.1392857C80.0103586 36.0678571 88.6302789 50.4 81.1649402 70.9642857c.125498.0321429.2581674.0928572.4804781-.1678571 3.4888446-4.0285715 11.4418327-19.5928572 7.0207172-36.7857143C86.9199203 27.225 83.4525896 18.8535714 74.5565737 11.0642857c-2.9423423-2.50309882-6.2184676-4.58837376-9.7350598-6.19642856C61.1964143 3.19642857 57.7613546 2.25 55.8573705 2.0107143c-2.3306773-.28214287-5.4788844-.1464286-8.2972111 3.4035714-2.8183267 3.55-2.0043825 9.8785714 3.9944223 12.6071429C57.0406375 20.5107143 62.361753 22.4 68.3820717 27.1392857z"/><path d="M18.2079681 33.0857143c2.2374502-14.4428572 11.3378486-29.22500002 32.8912351-32.25-.0358566-.12500002 0-.4107143-.3298805-.45714287C43.4043825-.7142857 27.2653386-.15714287 14.2780876 11.9785714c-5.12749 4.7928572-10.75697206 11.825-13.32430274 23.3428572C.13517016 39.1499599-.1543607 43.071954.0932271 46.9785714.32872772 50.1767962.9302361 53.3377609 1.88605577 56.4c.62749004 2.1428571 3.13386454 5 7.0135458 5.3857143 4.85139442.4821428 9.68127492-2.8 9.32270922-9.3857143-.3513945-5.9892857-1.2800797-11.7785714-.0143427-19.3142857z"/><path fill-rule="nonzero" d="M60.2390438 41.625c.1003984-3.1142857-.2868526-8.9285714-4.1199203-12.8571429-2.4884462-2.5535714-6.0203187-3.8392857-10.4880478-3.8142857-4.4677291.025-7.9494024 1.2535715-10.4306773 3.7964286-3.8294821 3.9285714-4.2203187 9.825-4.112749 12.9892857l.125498-.3571428c-2.5099601 2.8892857-4.4031872 9.7642857-3.9442231 11.0071428.0722833.2280237.2656593.3972441.501992.4392857 1.5525897.2392857 2.9187251-.3035714 4.1952192-1.6642857.0604325-.0672644.1263987-.129385.1972111-.1857143-.0762354.0354079-.1625422.0429929-.2438247.0214286-.087055-.0193116-.1637596-.0702451-.2151394-.1428571.0179283.0285714.0466135.125.0788844.1964285.1792829.4857143 1.5920319 3.15 1.9936255 3.7642857.0485806.0656684.085008.1394435.1075698.2178572-.0009948-.0579281.0224125-.1136237.0645418-.1535714-.0730256.0368875-.1518542.0610463-.2330677.0714285-.9688636.2430678-1.8207427.8184282-2.4059761 1.625-.443639.5329767-.5866455 1.253234-.3800797 1.9142857.2868526.8892858 1.2011952 1.6285715 2.5673307 2.0607143 5.5434263 1.7857143 9.6490039.2107143 10.6386454-.2071428.9886523-.4406537 2.1220237-.4249749 3.0980079.0428571 1.2657371.5928572 5.9055777 1.7857143 10.8466136.0464286 1.2478088-.4321429 2.0832669-1.125 2.3450199-1.9321429.1825544-.5962905.0592269-1.2438609-.3298805-1.7321428-.6049953-.9298936-1.5439717-1.5942791-2.6247012-1.8571429-.0773386-.0168593-.152956-.0407696-.2258964-.0714286.0948955.071309.1373456.1925165.1075697.3071429.0215196-.0463782.0492631-.0896306.0824702-.1285714.7122471-1.185812 1.3621279-2.4076987 1.9470119-3.6607143l.0358566-.0821429c.0339906-.0990382.0772067-.1946929.1290837-.2857143-.056573.0532728-.1302395.0848996-.2079682.0892858-.0759015.0093331-.152577-.0097597-.2151394-.0535715.0192598.0202877.0372233.0417584.0537848.0642857.7637451 1.1 2.9223108 2.3357143 4.4354582 1.7.2700487-.1221004.4638673-.3670736.5199203-.6571428.4948207-1.85-2.050996-8.3107143-3.9980079-10.8357143l.103984.325z"/></g></svg>